<svg xmlns="http://www.w3.org/2000/svg" width="103.922" height="41.202" viewBox="0 0 103.922 41.202">
  <g id="Group_7821" data-name="Group 7821" transform="translate(0 0)">
    <g id="Group_3900" data-name="Group 3900" transform="translate(0 0)">
      <path id="Path_12257" data-name="Path 12257" d="M19.418,6.076A14.159,14.159,0,1,1,9.406,10.223,14.067,14.067,0,0,1,19.418,6.076m0-5.259A19.418,19.418,0,1,0,38.836,20.235,19.418,19.418,0,0,0,19.418.817" transform="translate(0 -0.469)" fill="#d62b47"/>
      <path id="Path_12258" data-name="Path 12258" d="M22.172,44.142V41.775l4.223-4.46a10.623,10.623,0,0,0,.929-1.119,1.5,1.5,0,0,0,.292-.847,1.016,1.016,0,0,0-.3-.765,1.141,1.141,0,0,0-.828-.291,1.858,1.858,0,0,0-1.711,1.329l-2.8-1.566a4.653,4.653,0,0,1,1.82-2.184,4.938,4.938,0,0,1,2.658-.746,4.723,4.723,0,0,1,3.122,1.083,3.643,3.643,0,0,1,1.3,2.958,4.151,4.151,0,0,1-.519,2.047,9.65,9.65,0,0,1-1.521,1.974l-1.733,1.8h3.992v3.149Z" transform="translate(-12.607 -17.859)" fill="#d62b47"/>
      <path id="Path_12259" data-name="Path 12259" d="M55.309,39.594v2.967H54.035v1.948h-3.24V42.561H45.206v-3l3.8-7.8h3.6l-3.841,7.827h2.02V37.3h3.24v2.294Z" transform="translate(-25.937 -18.227)" fill="#d62b47"/>
      <path id="Path_12260" data-name="Path 12260" d="M92.3,57.268h1.152a6.866,6.866,0,0,0,1.768-.2,2.241,2.241,0,0,0,1.192-.765,3.689,3.689,0,0,0,.666-1.6,14.015,14.015,0,0,0,.208-2.682V36.865h5.483V52.1a18.111,18.111,0,0,1-.536,4.748,7.5,7.5,0,0,1-1.669,3.169A6.558,6.558,0,0,1,97.708,61.8a13.491,13.491,0,0,1-4.112.556H92.3Z" transform="translate(-52.96 -21.152)" fill="#234ec4"/>
      <path id="Path_12261" data-name="Path 12261" d="M134.126,35.252a3.547,3.547,0,0,1-.4,1.977,1.421,1.421,0,0,1-1.232.546h-1.788a10.348,10.348,0,0,1-2.612-.308,5.15,5.15,0,0,1-2.046-1.033,4.719,4.719,0,0,1-1.341-1.947,8.442,8.442,0,0,1-.477-3.049V9.365h5.484V30.7a4.377,4.377,0,0,0,.129,1.182,1.5,1.5,0,0,0,.377.685,1.249,1.249,0,0,0,.626.318,4.254,4.254,0,0,0,.874.08h.775a3.108,3.108,0,0,1,.616.06.963.963,0,0,1,.517.288,1.7,1.7,0,0,1,.358.685,4.478,4.478,0,0,1,.139,1.251" transform="translate(-71.279 -5.373)" fill="#234ec4"/>
      <path id="Path_12262" data-name="Path 12262" d="M143.859,48.745a6.839,6.839,0,0,0,1.2-.089,1.686,1.686,0,0,0,.794-.348,1.415,1.415,0,0,0,.437-.745,5.079,5.079,0,0,0,.129-1.262V36.865H151.9v8.96a4.965,4.965,0,0,0,.158,1.351,1.875,1.875,0,0,0,.546.9,2.375,2.375,0,0,0,1.063.506,7.52,7.52,0,0,0,1.689.159,3.147,3.147,0,0,1,.616.06.963.963,0,0,1,.516.288,1.689,1.689,0,0,1,.358.685,4.475,4.475,0,0,1,.139,1.251,3.537,3.537,0,0,1-.4,1.977,1.42,1.42,0,0,1-1.231.546,9.546,9.546,0,0,1-1.231-.08,4.891,4.891,0,0,1-1.193-.308,4.306,4.306,0,0,1-2.086-1.778,4.236,4.236,0,0,1-1.232,1.182,5.75,5.75,0,0,1-1.49.646,8.423,8.423,0,0,1-1.659.278q-.864.059-1.718.06h-3.418a3.244,3.244,0,0,1-.636-.06.958.958,0,0,1-.516-.288,1.622,1.622,0,0,1-.348-.7,5.012,5.012,0,0,1-.129-1.281,3.509,3.509,0,0,1,.387-1.957,1.44,1.44,0,0,1,1.242-.526Zm2.622,10.708a2.692,2.692,0,0,1,.208-1.053,2.8,2.8,0,0,1,.576-.874,2.618,2.618,0,0,1,.854-.586,2.785,2.785,0,0,1,2.116,0,2.6,2.6,0,0,1,.864.586,2.959,2.959,0,0,1,.586.874,2.644,2.644,0,0,1,0,2.106,2.771,2.771,0,0,1-1.45,1.45,2.67,2.67,0,0,1-2.116,0,2.853,2.853,0,0,1-.854-.586,2.708,2.708,0,0,1-.785-1.917" transform="translate(-80.158 -21.152)" fill="#234ec4"/>
      <path id="Path_12263" data-name="Path 12263" d="M189.162,35.561a14.985,14.985,0,0,0-.526-3.1,6.593,6.593,0,0,0-1.251-2.424,5.552,5.552,0,0,0-2.2-1.569,8.8,8.8,0,0,0-3.337-.556q-.318,0-.864.05t-1.222.149q-.676.1-1.43.249t-1.49.367V23.86q.5-.179,1.172-.378t1.46-.358q.784-.159,1.649-.268a13.839,13.839,0,0,1,1.739-.11,12.178,12.178,0,0,1,5.523,1.133,9.966,9.966,0,0,1,3.636,3.04,12.327,12.327,0,0,1,2,4.38,21.587,21.587,0,0,1,.606,5.155v3.914H174.242a3.245,3.245,0,0,1-.636-.059.966.966,0,0,1-.517-.288,1.626,1.626,0,0,1-.348-.7,5.008,5.008,0,0,1-.129-1.281A3.509,3.509,0,0,1,173,36.088a1.439,1.439,0,0,1,1.242-.526Zm-9.516-18.953a2.708,2.708,0,0,1,.794-1.927,2.733,2.733,0,0,1,.864-.586,2.67,2.67,0,0,1,1.063-.209,2.618,2.618,0,0,1,1.9.795,2.956,2.956,0,0,1,.586.874,2.644,2.644,0,0,1,0,2.106,2.8,2.8,0,0,1-1.44,1.45,2.519,2.519,0,0,1-1.043.219,2.562,2.562,0,0,1-1.063-.219,2.971,2.971,0,0,1-.864-.586,2.6,2.6,0,0,1-.586-.864,2.692,2.692,0,0,1-.208-1.053" transform="translate(-99.039 -7.967)" fill="#234ec4"/>
      <path id="Path_12264" data-name="Path 12264" d="M235.964,6h-5.483V3.978h.6a1.6,1.6,0,0,1-.268-.606,2.8,2.8,0,0,1-.09-.637,2.309,2.309,0,0,1,.3-1.181A2.673,2.673,0,0,1,231.8.7a3.7,3.7,0,0,1,1.1-.52A4.543,4.543,0,0,1,234.176,0a6.406,6.406,0,0,1,1.112.085q.477.086.874.194V2.238q-.5-.078-.854-.117t-.536-.039a1.686,1.686,0,0,0-1.063.257.835.835,0,0,0-.308.676.876.876,0,0,0,.318.684,1.942,1.942,0,0,0,1.231.28h1.013Zm0,26.4h-5.483V7.806h5.483Z" transform="translate(-132.241 0)" fill="#234ec4"/>
    </g>
  </g>
</svg>
