<svg xmlns="http://www.w3.org/2000/svg" width="21.494" height="22.685" viewBox="0 0 21.494 22.685">
  <path id="Path_19178" data-name="Path 19178" d="M6.982,19.755V16.537a1.493,1.493,0,0,1,1.5-1.487H11.5a1.5,1.5,0,0,1,1.059.436A1.482,1.482,0,0,1,13,16.537v3.218a1.277,1.277,0,0,0,.375.912,1.3,1.3,0,0,0,.916.379h2.063a3.641,3.641,0,0,0,2.571-1.051,3.588,3.588,0,0,0,1.066-2.55V8.278a2.6,2.6,0,0,0-.942-2L12.032.711A3.259,3.259,0,0,0,7.877.786L1.018,6.277A2.6,2.6,0,0,0,0,8.278v9.157a3.624,3.624,0,0,0,3.637,3.61H5.653a1.3,1.3,0,0,0,1.3-1.281Z" transform="translate(0.75 0.889)" fill="none" stroke="#8e929e" stroke-width="1.5"/>
</svg>
