<svg xmlns="http://www.w3.org/2000/svg" width="20.893" height="21.344" viewBox="0 0 20.893 21.344">
  <g id="Graph" transform="translate(0 0)">
    <path id="Combined-Shape" d="M8.147,4.2a1.761,1.761,0,0,1,.682,1.391c0,4.385.148,5.565.753,6.014.4.293.941.29,2.774.239.852-.025,1.943-.057,3.372-.057a1.932,1.932,0,0,1,1.471.669,1.767,1.767,0,0,1,.408,1.419A8.859,8.859,0,0,1,0,12.488a9.228,9.228,0,0,1,6.527-8.63A1.913,1.913,0,0,1,8.147,4.2ZM6.982,5.3a.394.394,0,0,0-.1.012A7.651,7.651,0,0,0,1.5,12.488a7.358,7.358,0,0,0,14.624,1.161.254.254,0,0,0-.064-.214.439.439,0,0,0-.332-.145c-1.411,0-2.488.032-3.329.056-2.036.061-2.878.084-3.71-.533C7.5,11.932,7.343,10.45,7.33,6.293v-.7h0a.256.256,0,0,0-.108-.21A.386.386,0,0,0,6.982,5.3Zm11.068-2.57a8.939,8.939,0,0,1,2.842,5.883,1.44,1.44,0,0,1-1.223,1.406,30.6,30.6,0,0,1-4.355.267c-1.31,0-2.463-.053-3.126-.091a1.645,1.645,0,0,1-1.546-1.548c-.078-1.322-.247-4.681-.127-7.279A1.425,1.425,0,0,1,11.9,0,8.53,8.53,0,0,1,18.051,2.734ZM12.033,1.5h-.022c-.11,2.519.053,5.773.129,7.062a.14.14,0,0,0,.136.137,41.064,41.064,0,0,0,7.117-.152,7.574,7.574,0,0,0-2.4-4.754A7.142,7.142,0,0,0,12.033,1.5Z" fill="#8e929e" fill-rule="evenodd"/>
  </g>
</svg>
