<svg xmlns="http://www.w3.org/2000/svg" width="21.084" height="21.084" viewBox="0 0 21.084 21.084">
  <path id="Icon_ionic-ios-football" data-name="Icon ionic-ios-football" d="M13.917,3.375A10.542,10.542,0,1,0,24.459,13.917,10.54,10.54,0,0,0,13.917,3.375Zm6.452,4.09a9.052,9.052,0,0,1,1.145,1.394.186.186,0,0,1,.02.177L20.8,11.13a.2.2,0,0,1-.106.117l-2.914,1.328a.2.2,0,0,1-.213-.03L14.7,10.131a.208.208,0,0,1-.071-.157v-3.2a.2.2,0,0,1,.091-.167l1.946-1.323a.2.2,0,0,1,.177-.025A9.237,9.237,0,0,1,20.369,7.465ZM16.624,22.548a.187.187,0,0,1-.132.122,9.11,9.11,0,0,1-2.575.365,9.269,9.269,0,0,1-2.575-.365.21.21,0,0,1-.132-.122l-.831-2.179a.213.213,0,0,1,.01-.167l1.13-2.144a.2.2,0,0,1,.177-.106h4.435a.2.2,0,0,1,.177.106L17.44,20.2a.213.213,0,0,1,.01.167ZM13.208,6.786v3.2a.208.208,0,0,1-.071.157l-2.874,2.407a.2.2,0,0,1-.213.03L7.136,11.251a.2.2,0,0,1-.106-.117L6.3,9.046a.2.2,0,0,1,.02-.177,9.189,9.189,0,0,1,4.673-3.588.2.2,0,0,1,.177.025l1.946,1.323A.168.168,0,0,1,13.208,6.786ZM4.88,14.328l1.83-1.581a.2.2,0,0,1,.218-.03l2.656,1.206a.2.2,0,0,1,.112.137l.74,2.9a.242.242,0,0,1-.015.147L9.244,19.335a.2.2,0,0,1-.182.106l-2.331-.03a.212.212,0,0,1-.162-.081,9.058,9.058,0,0,1-1.759-4.835A.222.222,0,0,1,4.88,14.328Zm13.7,5-1.171-2.22a.186.186,0,0,1-.015-.147l.74-2.9a.2.2,0,0,1,.112-.137l2.656-1.206a.213.213,0,0,1,.218.03l1.83,1.581a.205.205,0,0,1,.071.167,9.032,9.032,0,0,1-1.759,4.835.2.2,0,0,1-.162.081l-2.336.03A.222.222,0,0,1,18.585,19.33Z" transform="translate(-3.375 -3.375)" fill="#8e929e"/>
</svg>
